<?xml version="1.0" encoding="UTF-8"?><svg xmlns="http://www.w3.org/2000/svg" xmlns:xlink="http://www.w3.org/1999/xlink" fill-opacity="1" color-rendering="auto" color-interpolation="auto" text-rendering="auto" stroke="black" stroke-linecap="square" width="680" stroke-miterlimit="10" shape-rendering="auto" stroke-opacity="1" fill="black" stroke-dasharray="none" font-weight="normal" stroke-width="1" height="538" font-family="'Dialog'" font-style="normal" stroke-linejoin="miter" font-size="12px" stroke-dashoffset="0" image-rendering="auto">
  <!--Generated by ySVG 2.5-->
  <defs id="genericDefs"/>
  <g>
    <defs id="defs1">
      <clipPath clipPathUnits="userSpaceOnUse" id="clipPath1">
        <path d="M0 0 L680 0 L680 538 L0 538 L0 0 Z"/>
      </clipPath>
      <clipPath clipPathUnits="userSpaceOnUse" id="clipPath2">
        <path d="M180 76 L860 76 L860 614 L180 614 L180 76 Z"/>
      </clipPath>
    </defs>
    <g fill="white" text-rendering="geometricPrecision" shape-rendering="geometricPrecision" transform="translate(-180,-76)" stroke="white">
      <rect x="180" width="680" height="538" y="76" clip-path="url(#clipPath2)" stroke="none"/>
    </g>
    <g fill="rgb(153,204,0)" text-rendering="geometricPrecision" shape-rendering="geometricPrecision" transform="matrix(1,0,0,1,-180,-76)" stroke="rgb(153,204,0)">
      <path d="M252 196.8751 L281.8755 167 L324.1245 167 L354 196.8751 L354 239.1249 L324.1245 269 L281.8755 269 L252 239.1249 Z" fill-rule="evenodd" clip-path="url(#clipPath2)" stroke="none"/>
    </g>
    <g text-rendering="geometricPrecision" stroke-miterlimit="1.45" shape-rendering="geometricPrecision" transform="matrix(1,0,0,1,-180,-76)" stroke-linecap="butt">
      <path fill="none" d="M252 196.8751 L281.8755 167 L324.1245 167 L354 196.8751 L354 239.1249 L324.1245 269 L281.8755 269 L252 239.1249 Z" fill-rule="evenodd" clip-path="url(#clipPath2)"/>
      <text x="270.9873" xml:space="preserve" y="222.7139" clip-path="url(#clipPath2)" font-family="sans-serif" stroke="none">ms-frontend</text>
    </g>
    <g fill="rgb(153,204,0)" text-rendering="geometricPrecision" shape-rendering="geometricPrecision" transform="matrix(1,0,0,1,-180,-76)" stroke="rgb(153,204,0)">
      <path d="M469 196.8751 L498.8751 167 L541.1249 167 L571 196.8751 L571 239.1249 L541.1249 269 L498.8751 269 L469 239.1249 Z" fill-rule="evenodd" clip-path="url(#clipPath2)" stroke="none"/>
    </g>
    <g text-rendering="geometricPrecision" stroke-miterlimit="1.45" shape-rendering="geometricPrecision" transform="matrix(1,0,0,1,-180,-76)" stroke-linecap="butt">
      <path fill="none" d="M469 196.8751 L498.8751 167 L541.1249 167 L571 196.8751 L571 239.1249 L541.1249 269 L498.8751 269 L469 239.1249 Z" fill-rule="evenodd" clip-path="url(#clipPath2)"/>
      <text x="490.999" xml:space="preserve" y="222.7139" clip-path="url(#clipPath2)" font-family="sans-serif" stroke="none">ms-service</text>
    </g>
    <g fill="rgb(153,204,0)" text-rendering="geometricPrecision" shape-rendering="geometricPrecision" transform="matrix(1,0,0,1,-180,-76)" stroke="rgb(153,204,0)">
      <path d="M686 196.8751 L715.8751 167 L758.1249 167 L788 196.8751 L788 239.1249 L758.1249 269 L715.8751 269 L686 239.1249 Z" fill-rule="evenodd" clip-path="url(#clipPath2)" stroke="none"/>
    </g>
    <g text-rendering="geometricPrecision" stroke-miterlimit="1.45" shape-rendering="geometricPrecision" transform="matrix(1,0,0,1,-180,-76)" stroke-linecap="butt">
      <path fill="none" d="M686 196.8751 L715.8751 167 L758.1249 167 L788 196.8751 L788 239.1249 L758.1249 269 L715.8751 269 L686 239.1249 Z" fill-rule="evenodd" clip-path="url(#clipPath2)"/>
      <text x="718.9971" xml:space="preserve" y="222.7139" clip-path="url(#clipPath2)" font-family="sans-serif" stroke="none">ms-api</text>
    </g>
    <g fill="rgb(255,255,153)" text-rendering="geometricPrecision" shape-rendering="geometricPrecision" transform="matrix(1,0,0,1,-180,-76)" stroke="rgb(255,255,153)">
      <rect x="208" width="190" height="111" y="328" clip-path="url(#clipPath2)" stroke="none"/>
    </g>
    <g text-rendering="geometricPrecision" stroke-miterlimit="1.45" shape-rendering="geometricPrecision" transform="matrix(1,0,0,1,-180,-76)" stroke-linecap="butt">
      <rect fill="none" x="208" width="190" height="111" y="328" clip-path="url(#clipPath2)"/>
      <text x="236.6543" xml:space="preserve" y="344.1104" clip-path="url(#clipPath2)" font-family="sans-serif" stroke="none"># application.yml</text>
      <text x="236.6543" xml:space="preserve" y="358.8115" clip-path="url(#clipPath2)" font-family="sans-serif" stroke="none"> </text>
      <text x="236.6543" xml:space="preserve" y="373.5127" clip-path="url(#clipPath2)" font-family="sans-serif" stroke="none">zuul:</text>
      <text x="236.6543" xml:space="preserve" y="388.2139" clip-path="url(#clipPath2)" font-family="sans-serif" stroke="none">  routes:</text>
      <text x="236.6543" xml:space="preserve" y="402.915" clip-path="url(#clipPath2)" font-family="sans-serif" stroke="none">    api:</text>
      <text x="236.6543" xml:space="preserve" y="417.6162" clip-path="url(#clipPath2)" font-family="sans-serif" stroke="none">      path: /api/**</text>
      <text x="236.6543" xml:space="preserve" y="432.3174" clip-path="url(#clipPath2)" font-family="sans-serif" stroke="none">      serviceId: ms-service</text>
    </g>
    <g fill="rgb(255,255,153)" text-rendering="geometricPrecision" shape-rendering="geometricPrecision" transform="matrix(1,0,0,1,-180,-76)" stroke="rgb(255,255,153)">
      <rect x="195" width="650" height="123" y="476" clip-path="url(#clipPath2)" stroke="none"/>
    </g>
    <g text-rendering="geometricPrecision" stroke-miterlimit="1.45" shape-rendering="geometricPrecision" transform="matrix(1,0,0,1,-180,-76)" stroke-linecap="butt">
      <rect fill="none" x="195" width="650" height="123" y="476" clip-path="url(#clipPath2)"/>
      <text x="201" xml:space="preserve" y="494.0645" clip-path="url(#clipPath2)" font-family="sans-serif" stroke="none">@FeignClient(value = "ms-api")</text>
      <text x="201" xml:space="preserve" y="508.7656" clip-path="url(#clipPath2)" font-family="sans-serif" stroke="none">public interface HelloWorldClient {</text>
      <text x="201" xml:space="preserve" y="523.4668" clip-path="url(#clipPath2)" font-family="sans-serif" stroke="none"> </text>
      <text x="201" xml:space="preserve" y="538.168" clip-path="url(#clipPath2)" font-family="sans-serif" stroke="none">    @RequestMapping(method = RequestMethod.GET, value = "/hello-world", consumes = "application/json")</text>
      <text x="201" xml:space="preserve" y="552.8691" clip-path="url(#clipPath2)" font-family="sans-serif" stroke="none">    public Greeting sayHello(@RequestParam(name = "name", required = false, defaultValue = "Stranger") String name) ;</text>
      <text x="201" xml:space="preserve" y="567.5703" clip-path="url(#clipPath2)" font-family="sans-serif" stroke="none"> </text>
      <text x="201" xml:space="preserve" y="582.2715" clip-path="url(#clipPath2)" font-family="sans-serif" stroke="none">}</text>
    </g>
    <g fill="rgb(153,204,255)" text-rendering="geometricPrecision" shape-rendering="geometricPrecision" transform="matrix(1,0,0,1,-180,-76)" stroke="rgb(153,204,255)">
      <rect x="195" y="91.976" clip-path="url(#clipPath2)" width="650" rx="4" ry="4" height="52.4" stroke="none"/>
    </g>
    <g text-rendering="geometricPrecision" stroke-miterlimit="1.45" shape-rendering="geometricPrecision" transform="matrix(1,0,0,1,-180,-76)" stroke-linecap="butt">
      <rect x="195" y="91.976" clip-path="url(#clipPath2)" fill="none" width="650" rx="4" ry="4" height="52.4"/>
      <text x="455.9844" font-size="16px" y="124.4612" clip-path="url(#clipPath2)" font-family="sans-serif" stroke="none" xml:space="preserve">Service Discovery</text>
      <path fill="none" d="M353.9918 218 L460.9736 218" clip-path="url(#clipPath2)"/>
      <path d="M468.9736 218 L456.9736 213 L459.9736 218 L456.9736 223 Z" clip-path="url(#clipPath2)" stroke="none"/>
      <text x="397.8242" xml:space="preserve" y="252.7139" clip-path="url(#clipPath2)" font-family="sans-serif" stroke="none">/api/*</text>
      <path fill="none" d="M570.9918 218 L677.9736 218" clip-path="url(#clipPath2)"/>
      <path d="M685.9736 218 L673.9736 213 L676.9736 218 L673.9736 223 Z" clip-path="url(#clipPath2)" stroke="none"/>
      <text x="593.8184" xml:space="preserve" y="252.7139" clip-path="url(#clipPath2)" font-family="sans-serif" stroke="none">/hello-world/*</text>
      <path fill="none" stroke-dasharray="6,2" d="M303 269.0319 L303 320" clip-path="url(#clipPath2)"/>
      <path fill="white" stroke-dasharray="6,2" d="M303 328 C300.7909 328 299 326.2091 299 324 C299 321.7909 300.7909 320 303 320 C305.2091 320 307 321.7909 307 324 C307 326.2091 305.2091 328 303 328 Z" clip-path="url(#clipPath2)" stroke="none"/>
      <path fill="none" d="M303 328 C300.7909 328 299 326.2091 299 324 C299 321.7909 300.7909 320 303 320 C305.2091 320 307 321.7909 307 324 C307 326.2091 305.2091 328 303 328 Z" clip-path="url(#clipPath2)"/>
      <path fill="none" stroke-dasharray="6,2" d="M520 268.9749 L520 468" clip-path="url(#clipPath2)"/>
      <path fill="white" stroke-dasharray="6,2" d="M520 476 C517.7908 476 516 474.2091 516 472 C516 469.7909 517.7908 468 520 468 C522.2092 468 524 469.7909 524 472 C524 474.2091 522.2092 476 520 476 Z" clip-path="url(#clipPath2)" stroke="none"/>
      <path fill="none" d="M520 476 C517.7908 476 516 474.2091 516 472 C516 469.7909 517.7908 468 520 468 C522.2092 468 524 469.7909 524 472 C524 474.2091 522.2092 476 520 476 Z" clip-path="url(#clipPath2)"/>
    </g>
  </g>
</svg>
