<?xml version="1.0" encoding="UTF-8"?><svg xmlns="http://www.w3.org/2000/svg" xmlns:xlink="http://www.w3.org/1999/xlink" fill-opacity="1" color-rendering="auto" color-interpolation="auto" text-rendering="auto" stroke="black" stroke-linecap="square" width="762" stroke-miterlimit="10" shape-rendering="auto" stroke-opacity="1" fill="black" stroke-dasharray="none" font-weight="normal" stroke-width="1" height="705" font-family="'Dialog'" font-style="normal" stroke-linejoin="miter" font-size="12px" stroke-dashoffset="0" image-rendering="auto">
  <!--Generated by ySVG 2.5-->
  <defs id="genericDefs"/>
  <g>
    <defs id="defs1">
      <clipPath clipPathUnits="userSpaceOnUse" id="clipPath1">
        <path d="M0 0 L762 0 L762 705 L0 705 L0 0 Z"/>
      </clipPath>
      <clipPath clipPathUnits="userSpaceOnUse" id="clipPath2">
        <path d="M-46 -62 L716 -62 L716 643 L-46 643 L-46 -62 Z"/>
      </clipPath>
    </defs>
    <g fill="white" text-rendering="geometricPrecision" shape-rendering="geometricPrecision" transform="translate(46,62)" stroke="white">
      <rect x="-46" width="762" height="705" y="-62" clip-path="url(#clipPath2)" stroke="none"/>
    </g>
    <g fill="rgb(153,204,0)" text-rendering="geometricPrecision" shape-rendering="geometricPrecision" transform="matrix(1,0,0,1,46,62)" stroke="rgb(153,204,0)">
      <path d="M277 221.8751 L306.8751 192 L349.1249 192 L379 221.8751 L379 264.1249 L349.1249 294 L306.8751 294 L277 264.1249 Z" fill-rule="evenodd" clip-path="url(#clipPath2)" stroke="none"/>
    </g>
    <g text-rendering="geometricPrecision" stroke-miterlimit="1.45" shape-rendering="geometricPrecision" transform="matrix(1,0,0,1,46,62)" stroke-linecap="butt">
      <path fill="none" d="M277 221.8751 L306.8751 192 L349.1249 192 L379 221.8751 L379 264.1249 L349.1249 294 L306.8751 294 L277 264.1249 Z" fill-rule="evenodd" clip-path="url(#clipPath2)"/>
      <text x="295.9873" xml:space="preserve" y="247.7139" clip-path="url(#clipPath2)" font-family="sans-serif" stroke="none">ms-frontend</text>
    </g>
    <g fill="rgb(153,204,0)" text-rendering="geometricPrecision" shape-rendering="geometricPrecision" transform="matrix(1,0,0,1,46,62)" stroke="rgb(153,204,0)">
      <path d="M598.5 65.8751 L628.3751 36 L670.6249 36 L700.5 65.8751 L700.5 108.1249 L670.6249 138 L628.3751 138 L598.5 108.1249 Z" fill-rule="evenodd" clip-path="url(#clipPath2)" stroke="none"/>
    </g>
    <g text-rendering="geometricPrecision" stroke-miterlimit="1.45" shape-rendering="geometricPrecision" transform="matrix(1,0,0,1,46,62)" stroke-linecap="butt">
      <path fill="none" d="M598.5 65.8751 L628.3751 36 L670.6249 36 L700.5 65.8751 L700.5 108.1249 L670.6249 138 L628.3751 138 L598.5 108.1249 Z" fill-rule="evenodd" clip-path="url(#clipPath2)"/>
      <text x="635.502" xml:space="preserve" y="91.7139" clip-path="url(#clipPath2)" font-family="sans-serif" stroke="none">ms-Y</text>
    </g>
    <g fill="rgb(255,153,204)" text-rendering="geometricPrecision" shape-rendering="geometricPrecision" transform="matrix(1,0,0,1,46,62)" stroke="rgb(255,153,204)">
      <path d="M-30.5 405.8751 L-0.6249 376 L41.6249 376 L71.5 405.8751 L71.5 448.1249 L41.6249 478 L-0.6249 478 L-30.5 448.1249 Z" fill-rule="evenodd" clip-path="url(#clipPath2)" stroke="none"/>
    </g>
    <g text-rendering="geometricPrecision" stroke-miterlimit="1.45" shape-rendering="geometricPrecision" transform="matrix(1,0,0,1,46,62)" stroke-linecap="butt">
      <path fill="none" d="M-30.5 405.8751 L-0.6249 376 L41.6249 376 L71.5 405.8751 L71.5 448.1249 L41.6249 478 L-0.6249 478 L-30.5 448.1249 Z" fill-rule="evenodd" clip-path="url(#clipPath2)"/>
      <text x="-5.5068" xml:space="preserve" y="431.7139" clip-path="url(#clipPath2)" font-family="sans-serif" stroke="none">ms-config</text>
    </g>
    <g fill="rgb(153,204,0)" text-rendering="geometricPrecision" shape-rendering="geometricPrecision" transform="matrix(1,0,0,1,46,62)" stroke="rgb(153,204,0)">
      <path d="M595.5 221.8751 L625.3751 192 L667.6249 192 L697.5 221.8751 L697.5 264.1249 L667.6249 294 L625.3751 294 L595.5 264.1249 Z" fill-rule="evenodd" clip-path="url(#clipPath2)" stroke="none"/>
    </g>
    <g text-rendering="geometricPrecision" stroke-miterlimit="1.45" shape-rendering="geometricPrecision" transform="matrix(1,0,0,1,46,62)" stroke-linecap="butt">
      <path fill="none" d="M595.5 221.8751 L625.3751 192 L667.6249 192 L697.5 221.8751 L697.5 264.1249 L667.6249 294 L625.3751 294 L595.5 264.1249 Z" fill-rule="evenodd" clip-path="url(#clipPath2)"/>
      <text x="632.502" xml:space="preserve" y="247.7139" clip-path="url(#clipPath2)" font-family="sans-serif" stroke="none">ms-Y</text>
    </g>
    <g fill="rgb(153,204,0)" text-rendering="geometricPrecision" shape-rendering="geometricPrecision" transform="matrix(1,0,0,1,46,62)" stroke="rgb(153,204,0)">
      <path d="M595.5 377.8751 L625.3751 348 L667.6249 348 L697.5 377.8751 L697.5 420.1249 L667.6249 450 L625.3751 450 L595.5 420.1249 Z" fill-rule="evenodd" clip-path="url(#clipPath2)" stroke="none"/>
    </g>
    <g text-rendering="geometricPrecision" stroke-miterlimit="1.45" shape-rendering="geometricPrecision" transform="matrix(1,0,0,1,46,62)" stroke-linecap="butt">
      <path fill="none" d="M595.5 377.8751 L625.3751 348 L667.6249 348 L697.5 377.8751 L697.5 420.1249 L667.6249 450 L625.3751 450 L595.5 420.1249 Z" fill-rule="evenodd" clip-path="url(#clipPath2)"/>
      <text x="632.502" xml:space="preserve" y="403.7139" clip-path="url(#clipPath2)" font-family="sans-serif" stroke="none">ms-Y</text>
    </g>
    <g fill="rgb(153,204,255)" text-rendering="geometricPrecision" shape-rendering="geometricPrecision" transform="matrix(1,0,0,1,46,62)" stroke="rgb(153,204,255)">
      <rect x="-16.5" y="-46.4" clip-path="url(#clipPath2)" width="714" rx="4" ry="4" height="52.4" stroke="none"/>
    </g>
    <g text-rendering="geometricPrecision" stroke-miterlimit="1.45" shape-rendering="geometricPrecision" transform="matrix(1,0,0,1,46,62)" stroke-linecap="butt">
      <rect x="-16.5" y="-46.4" clip-path="url(#clipPath2)" fill="none" width="714" rx="4" ry="4" height="52.4"/>
      <text x="243.125" font-size="16px" y="-13.9148" clip-path="url(#clipPath2)" font-family="sans-serif" stroke="none" xml:space="preserve">Configuration First Strategy</text>
    </g>
    <g fill="rgb(255,255,153)" text-rendering="geometricPrecision" shape-rendering="geometricPrecision" transform="matrix(1,0,0,1,46,62)" stroke="rgb(255,255,153)">
      <rect x="225" width="206" height="160" y="467" clip-path="url(#clipPath2)" stroke="none"/>
    </g>
    <g text-rendering="geometricPrecision" stroke-miterlimit="1.45" shape-rendering="geometricPrecision" transform="matrix(1,0,0,1,46,62)" stroke-linecap="butt">
      <rect fill="none" x="225" width="206" height="160" y="467" clip-path="url(#clipPath2)"/>
      <text x="254.292" xml:space="preserve" y="492.9092" clip-path="url(#clipPath2)" font-family="sans-serif" stroke="none">---</text>
      <text x="254.292" xml:space="preserve" y="507.6104" clip-path="url(#clipPath2)" font-family="sans-serif" stroke="none"># bootstrap.yml</text>
      <text x="254.292" xml:space="preserve" y="522.3115" clip-path="url(#clipPath2)" font-family="sans-serif" stroke="none">spring:</text>
      <text x="254.292" xml:space="preserve" y="537.0127" clip-path="url(#clipPath2)" font-family="sans-serif" stroke="none">  application:</text>
      <text x="254.292" xml:space="preserve" y="551.7139" clip-path="url(#clipPath2)" font-family="sans-serif" stroke="none">    name: ms-frontend</text>
      <text x="254.292" xml:space="preserve" y="566.415" clip-path="url(#clipPath2)" font-family="sans-serif" stroke="none">  cloud:</text>
      <text x="254.292" xml:space="preserve" y="581.1162" clip-path="url(#clipPath2)" font-family="sans-serif" stroke="none">    config:</text>
      <text x="254.292" xml:space="preserve" y="595.8174" clip-path="url(#clipPath2)" font-family="sans-serif" stroke="none">      uri: http://localhost:6666</text>
      <text x="254.292" xml:space="preserve" y="610.5186" clip-path="url(#clipPath2)" font-family="sans-serif" stroke="none">      failFast: true</text>
    </g>
    <g fill="rgb(255,153,0)" text-rendering="geometricPrecision" shape-rendering="geometricPrecision" transform="matrix(1,0,0,1,46,62)" stroke="rgb(255,153,0)">
      <path d="M-30.5 215.3751 L-0.6249 185.5 L41.6249 185.5 L71.5 215.3751 L71.5 257.6249 L41.6249 287.5 L-0.6249 287.5 L-30.5 257.6249 Z" fill-rule="evenodd" clip-path="url(#clipPath2)" stroke="none"/>
    </g>
    <g text-rendering="geometricPrecision" stroke-miterlimit="1.45" shape-rendering="geometricPrecision" transform="matrix(1,0,0,1,46,62)" stroke-linecap="butt">
      <path fill="none" d="M-30.5 215.3751 L-0.6249 185.5 L41.6249 185.5 L71.5 215.3751 L71.5 257.6249 L41.6249 287.5 L-0.6249 287.5 L-30.5 257.6249 Z" fill-rule="evenodd" clip-path="url(#clipPath2)"/>
      <text x="3.1562" xml:space="preserve" y="241.2139" clip-path="url(#clipPath2)" font-family="sans-serif" stroke="none">consul</text>
      <path fill="none" d="M376.5468 219.4438 L593.756 114.0484" clip-path="url(#clipPath2)"/>
      <path d="M600.9535 110.556 L587.9746 111.2962 L592.8564 114.4849 L592.3401 120.293 Z" clip-path="url(#clipPath2)" stroke="none"/>
      <path fill="none" d="M282.8434 270.0205 L72.4872 395.8922" clip-path="url(#clipPath2)"/>
      <path d="M65.6223 400 L78.4869 398.1289 L73.3453 395.3788 L73.3522 389.5478 Z" clip-path="url(#clipPath2)" stroke="none"/>
      <text x="77.0842" xml:space="preserve" y="325.5723" clip-path="url(#clipPath2)" font-family="sans-serif" stroke="none">1 - http://localhost:6666</text>
      <path fill="none" d="M378.9709 243 L587.5219 243" clip-path="url(#clipPath2)"/>
      <path d="M595.5219 243 L583.5219 238 L586.5219 243 L583.5219 248 Z" clip-path="url(#clipPath2)" stroke="none"/>
      <path fill="none" d="M376.4048 266.7085 L590.8817 371.7584" clip-path="url(#clipPath2)"/>
      <path d="M598.0662 375.2773 L589.4888 365.5086 L589.9836 371.3185 L585.0901 374.4892 Z" clip-path="url(#clipPath2)" stroke="none"/>
      <path fill="none" stroke-dasharray="6,2" d="M328 294.0254 L328 459" clip-path="url(#clipPath2)"/>
      <path fill="white" stroke-dasharray="6,2" d="M328 467 C325.7909 467 324 465.2091 324 463 C324 460.7909 325.7909 459 328 459 C330.2091 459 332 460.7909 332 463 C332 465.2091 330.2091 467 328 467 Z" clip-path="url(#clipPath2)" stroke="none"/>
      <path fill="none" d="M328 467 C325.7909 467 324 465.2091 324 463 C324 460.7909 325.7909 459 328 459 C330.2091 459 332 460.7909 332 463 C332 465.2091 330.2091 467 328 467 Z" clip-path="url(#clipPath2)"/>
      <path fill="none" d="M276.9877 241.9217 L79.5014 237.7472" clip-path="url(#clipPath2)"/>
      <path d="M71.5032 237.5781 L83.3949 242.8306 L80.5012 237.7683 L83.6062 232.8329 Z" clip-path="url(#clipPath2)" stroke="none"/>
      <text x="170.9131" xml:space="preserve" y="214.4572" clip-path="url(#clipPath2)" font-family="sans-serif" stroke="none">2</text>
    </g>
  </g>
</svg>
